# xmcd
#
# Track frame offsets: 
#        150
#        14180
#        26262
#        39095
#        53085
#        66157
#        77590
#        89840
#        99200
#        117357
#        129120
#        141035
#        153887
#        167905
#        181260
#        195760
#        211685
#
# Disc length: 2943 seconds
#
# Revision: 5
# Processed by: cddbd v1.5.2PL0 Copyright (c) Steve Scherf et al.
# Submitted via: ExactAudioCopy v0.99pb4
#
DISCID=cd0b7d11
DTITLE=Huey Lewis and The News - Four Chords and Several Years Ago
DYEAR=1994
DGENRE=Rock and Roll
TTITLE0=Shake Rattle And Roll
TTITLE1=Blue Monday
TTITLE2=Searching For My Love
TTITLE3=Come Kind Of Wonderful
TTITLE4=But It's Alright
TTITLE5=If You Gotta Make A Fool Of Somebody
TTITLE6=Mother In Law
TTITLE7=Little Bitty Pretty One
TTITLE8=Good Morning Little School Girl
TTITLE9=Stagger Lee
TTITLE10=She Shot A Hole In My Soul
TTITLE11=Surely I Love You
TTITLE12=You Left The Water Running
TTITLE13=Your Cash Ain't Nothin' But Trash
TTITLE14=Function At The Junction
TTITLE15=Better To Have And Not Need
TTITLE16=Going Down Slow
EXTD=Label: Elektra Entertainment\n7559-61500-2
EXTT0=
EXTT1=
EXTT2=
EXTT3=
EXTT4=
EXTT5=
EXTT6=
EXTT7=
EXTT8=
EXTT9=
EXTT10=
EXTT11=
EXTT12=
EXTT13=
EXTT14=
EXTT15=
EXTT16=
PLAYORDER=
